<svg width="60" height="60" viewBox="0 0 60 60" fill="none" xmlns="http://www.w3.org/2000/svg">
<path d="M30 60C46.5685 60 60 46.5685 60 30C60 13.4315 46.5685 0 30 0C13.4315 0 0 13.4315 0 30C0 46.5685 13.4315 60 30 60Z" fill="black"/>
<path d="M44.7248 21.083C45.0021 20.8353 45.227 20.6262 45.3927 20.4618C47.5299 18.3385 47.5702 14.8627 45.3927 12.6991C43.2154 10.5349 39.7182 10.5751 37.5818 12.6991C37.3906 12.8888 37.1403 13.1573 36.8389 13.4933C34.139 11.9194 31.1203 11.091 28.0532 11.091C27.4761 11.091 27.0082 11.5559 27.0082 12.1298C27.0082 12.7035 27.4761 13.1684 28.0532 13.1684C30.6619 13.1684 33.1441 13.816 35.4485 15.0944C28.9558 22.7324 12.3607 43.8443 11.5562 44.868C11.2313 45.2813 11.2679 45.8708 11.6411 46.2418C12.0144 46.6128 12.6076 46.6491 13.0238 46.3262C14.0599 45.5221 35.554 28.8344 43.1202 22.4658C46.0583 27.4663 45.195 34.2554 41.9301 38.9132C39.6754 36.8283 36.8048 35.0096 33.6507 35.0096C30.6051 35.0096 28.1274 37.472 28.1274 40.4989C28.1274 43.5255 30.6051 45.9879 33.6507 45.9879C38.2777 45.9879 41.3657 42.7809 42.0707 42.0379C43.904 44.0895 45.0523 46.0117 45.0645 46.0322C45.3139 46.4536 45.9311 46.7306 46.4953 46.4009C46.9931 46.1099 47.1589 45.4733 46.8661 44.9789C46.7552 44.7913 45.4757 42.6596 43.4206 40.4153C47.5496 34.9329 48.2233 26.4981 44.7248 21.083ZM39.0597 14.168C40.3924 12.8432 42.5633 12.825 43.9145 14.168C45.2661 15.511 45.2474 17.6687 43.9149 18.9924C43.8112 19.0956 43.6808 19.2186 43.5261 19.3599C42.9336 18.6174 42.3654 18.039 41.9148 17.6244L42.2265 17.3147C42.6347 16.9089 42.6347 16.2515 42.2265 15.8458C41.8185 15.4401 41.1567 15.4401 40.7484 15.8458L38.5093 18.0708C38.1011 18.4766 38.1011 19.1342 38.5093 19.54C38.9176 19.9454 39.5793 19.9457 39.9875 19.54L40.4351 19.0953C40.8382 19.4615 41.3825 20.0075 41.9505 20.7292C37.4357 24.5414 27.0041 32.7747 18.5209 39.4048C26.5617 29.2434 36.946 16.2688 39.0597 14.168ZM33.6507 43.9105C31.7579 43.9105 30.2177 42.38 30.2177 40.4986C30.2177 38.6175 31.7579 37.0871 33.6507 37.0871C35.1986 37.0871 37.612 37.7138 40.617 40.5412C38.3044 43.0144 35.7643 43.9105 33.6507 43.9105Z" fill="#FFD600"/>
</svg>
